HIERARCHY
ROOT Hips
{
    OFFSET   0.000000   0.000000   0.000000
    CHANNELS 6 Xposition Yposition Zposition Zrotation Xrotation Yrotation
    JOINT Chest
    {
        OFFSET   0.000000   8.007230   0.000000
        CHANNELS 3 Zrotation Xrotation Yrotation
        JOINT Chest2
        {
            OFFSET   0.000000  22.077100   0.000000
            CHANNELS 3 Zrotation Xrotation Yrotation
            JOINT Neck
            {
                OFFSET   0.000000  23.254800   0.000000
                CHANNELS 3 Zrotation Xrotation Yrotation
                JOINT Head
                {
                    OFFSET   0.000010  14.370000   1.956600
                    CHANNELS 3 Zrotation Xrotation Yrotation
                    End Site
                    {
                        OFFSET   0.000000  19.566000   0.000000
                    }
                }
            }
            JOINT LeftCollar
            {
                OFFSET   3.911900  19.017000  -0.467062
                CHANNELS 3 Zrotation Xrotation Yrotation
                JOINT LeftShoulder
                {
                    OFFSET  10.383700   0.000000   0.000000
                    CHANNELS 3 Zrotation Xrotation Yrotation
                    JOINT LeftElbow
                    {
                        OFFSET  26.662100   0.001193   0.000835
                        CHANNELS 3 Zrotation Xrotation Yrotation
                        JOINT LeftWrist
                        {
                            OFFSET  28.869000  -0.000058  -0.000075
                            CHANNELS 3 Zrotation Xrotation Yrotation
                            JOINT LeftFinger0
                            {
                                OFFSET   2.044660  -2.323460   3.252850
                                CHANNELS 3 Zrotation Xrotation Yrotation
                                JOINT LeftFinger01
                                {
                                    OFFSET   3.088130   0.000000   0.000000
                                    CHANNELS 3 Zrotation Xrotation Yrotation
                                    JOINT LeftFinger02
                                    {
                                        OFFSET   2.639450   0.000000   0.000000
                                        CHANNELS 3 Zrotation Xrotation Yrotation
                                        End Site
                                        {
                                            OFFSET   2.582190   0.000000   0.000000
                                        }
                                    }
                                }
                            }
                            JOINT LeftFinger1
                            {
                                OFFSET   8.364480   0.000000   3.252850
                                CHANNELS 3 Zrotation Xrotation Yrotation
                                JOINT LeftFinger11
                                {
                                    OFFSET   4.646920   0.000000   0.000000
                                    CHANNELS 3 Zrotation Xrotation Yrotation
                                    JOINT LeftFinger12
                                    {
                                        OFFSET   2.323460   0.000000   0.000000
                                        CHANNELS 3 Zrotation Xrotation Yrotation
                                        End Site
                                        {
                                            OFFSET   2.273050   0.000000   0.000000
                                        }
                                    }
                                }
                            }
                            JOINT LeftFinger2
                            {
                                OFFSET   8.364490   0.000016   1.078090
                                CHANNELS 3 Zrotation Xrotation Yrotation
                                JOINT LeftFinger21
                                {
                                    OFFSET   5.111620   0.000000   0.000000
                                    CHANNELS 3 Zrotation Xrotation Yrotation
                                    JOINT LeftFinger22
                                    {
                                        OFFSET   2.788150   0.000012   0.000000
                                        CHANNELS 3 Zrotation Xrotation Yrotation
                                        End Site
                                        {
                                            OFFSET   2.727660   0.000000   0.000000
                                        }
                                    }
                                }
                            }
                            JOINT LeftFinger3
                            {
                                OFFSET   7.899780   0.000014  -1.078090
                                CHANNELS 3 Zrotation Xrotation Yrotation
                                JOINT LeftFinger31
                                {
                                    OFFSET   4.646930   0.000000   0.000000
                                    CHANNELS 3 Zrotation Xrotation Yrotation
                                    JOINT LeftFinger32
                                    {
                                        OFFSET   2.323470   0.000000   0.000000
                                        CHANNELS 3 Zrotation Xrotation Yrotation
                                        End Site
                                        {
                                            OFFSET   2.273050   0.000000   0.000000
                                        }
                                    }
                                }
                            }
                            JOINT LeftFinger4
                            {
                                OFFSET   7.435090   0.000000  -3.252850
                                CHANNELS 3 Zrotation Xrotation Yrotation
                                JOINT LeftFinger41
                                {
                                    OFFSET   3.717550   0.000000   0.000000
                                    CHANNELS 3 Zrotation Xrotation Yrotation
                                    JOINT LeftFinger42
                                    {
                                        OFFSET   1.858770   0.000000   0.000000
                                        CHANNELS 3 Zrotation Xrotation Yrotation
                                        End Site
                                        {
                                            OFFSET   1.818440   0.000000   0.000000
                                        }
                                    }
                                }
                            }
                        }
                    }
                }
            }
            JOINT RightCollar
            {
                OFFSET  -3.911900  19.017000  -0.467063
                CHANNELS 3 Zrotation Xrotation Yrotation
                JOINT RightShoulder
                {
                    OFFSET -10.383700   0.000023   0.000000
                    CHANNELS 3 Zrotation Xrotation Yrotation
                    JOINT RightElbow
                    {
                        OFFSET -26.662100   0.001246   0.001011
                        CHANNELS 3 Zrotation Xrotation Yrotation
                        JOINT RightWrist
                        {
                            OFFSET -28.869000  -0.000026  -0.000078
                            CHANNELS 3 Zrotation Xrotation Yrotation
                            JOINT RightFinger0
                            {
                                OFFSET  -2.044660  -2.323490   3.252850
                                CHANNELS 3 Zrotation Xrotation Yrotation
                                JOINT RightFinger01
                                {
                                    OFFSET  -3.088130   0.000000   0.000000
                                    CHANNELS 3 Zrotation Xrotation Yrotation
                                    JOINT RightFinger02
                                    {
                                        OFFSET  -2.639460   0.000000   0.000000
                                        CHANNELS 3 Zrotation Xrotation Yrotation
                                        End Site
                                        {
                                            OFFSET  -2.582190   0.000000   0.000000
                                        }
                                    }
                                }
                            }
                            JOINT RightFinger1
                            {
                                OFFSET  -8.364480   0.000000   3.252850
                                CHANNELS 3 Zrotation Xrotation Yrotation
                                JOINT RightFinger11
                                {
                                    OFFSET  -4.646920   0.000000   0.000000
                                    CHANNELS 3 Zrotation Xrotation Yrotation
                                    JOINT RightFinger12
                                    {
                                        OFFSET  -2.323470   0.000000   0.000000
                                        CHANNELS 3 Zrotation Xrotation Yrotation
                                        End Site
                                        {
                                            OFFSET  -2.273050   0.000000   0.000000
                                        }
                                    }
                                }
                            }
                            JOINT RightFinger2
                            {
                                OFFSET  -8.364480   0.000000   1.078090
                                CHANNELS 3 Zrotation Xrotation Yrotation
                                JOINT RightFinger21
                                {
                                    OFFSET  -5.111620   0.000000   0.000000
                                    CHANNELS 3 Zrotation Xrotation Yrotation
                                    JOINT RightFinger22
                                    {
                                        OFFSET  -2.788160   0.000000   0.000000
                                        CHANNELS 3 Zrotation Xrotation Yrotation
                                        End Site
                                        {
                                            OFFSET  -2.727660   0.000000   0.000000
                                        }
                                    }
                                }
                            }
                            JOINT RightFinger3
                            {
                                OFFSET  -7.899780   0.000000  -1.078090
                                CHANNELS 3 Zrotation Xrotation Yrotation
                                JOINT RightFinger31
                                {
                                    OFFSET  -4.646930   0.000000   0.000000
                                    CHANNELS 3 Zrotation Xrotation Yrotation
                                    JOINT RightFinger32
                                    {
                                        OFFSET  -2.323470   0.000000   0.000000
                                        CHANNELS 3 Zrotation Xrotation Yrotation
                                        End Site
                                        {
                                            OFFSET  -2.273050   0.000000   0.000000
                                        }
                                    }
                                }
                            }
                            JOINT RightFinger4
                            {
                                OFFSET  -7.435090   0.000000  -3.252850
                                CHANNELS 3 Zrotation Xrotation Yrotation
                                JOINT RightFinger41
                                {
                                    OFFSET  -3.717550   0.000000   0.000000
                                    CHANNELS 3 Zrotation Xrotation Yrotation
                                    JOINT RightFinger42
                                    {
                                        OFFSET  -1.858760   0.000000   0.000000
                                        CHANNELS 3 Zrotation Xrotation Yrotation
                                        End Site
                                        {
                                            OFFSET  -1.818440   0.000000   0.000000
                                        }
                                    }
                                }
                            }
                        }
                    }
                }
            }
        }
    }
    JOINT LeftHip
    {
        OFFSET   9.783010   0.000000   0.000000
        CHANNELS 3 Zrotation Xrotation Yrotation
        JOINT LeftKnee
        {
            OFFSET   0.000073 -41.789100   0.001749
            CHANNELS 3 Zrotation Xrotation Yrotation
            JOINT LeftAnkle
            {
                OFFSET   0.000111 -41.133200  -0.000179
                CHANNELS 3 Zrotation Xrotation Yrotation
                JOINT LeftToe
                {
                    OFFSET   0.000000  -6.358960  14.674500
                    CHANNELS 3 Zrotation Xrotation Yrotation
                    End Site
                    {
                        OFFSET   0.000000   0.000000   3.913200
                    }
                }
            }
        }
    }
    JOINT RightHip
    {
        OFFSET  -9.783010   0.000000   0.000000
        CHANNELS 3 Zrotation Xrotation Yrotation
        JOINT RightKnee
        {
            OFFSET   0.000424 -41.789200   0.005205
            CHANNELS 3 Zrotation Xrotation Yrotation
            JOINT RightAnkle
            {
                OFFSET   0.000000 -41.133200  -0.000155
                CHANNELS 3 Zrotation Xrotation Yrotation
                JOINT RightToe
                {
                    OFFSET   0.000000  -6.358960  14.674500
                    CHANNELS 3 Zrotation Xrotation Yrotation
                    End Site
                    {
                        OFFSET   0.000000   0.000000   3.913200
                    }
                }
            }
        }
    }
}
MOTION
Frames: 6
Frame Time:   0.016667
 -3.308220  89.474700  -1.320450  -3.844800 -16.342100  -3.564200   2.761760   8.827100  -1.632660   5.886220  17.559400  -3.767480   2.243030   0.109560  -0.007933   3.685000   0.221050  10.734500  -1.833180  -1.143550   0.464765 -74.125400  20.456600  -8.799450  -3.225370  -6.456020 -12.155700  15.527600  -1.567450  -0.014254  43.332300  36.455000 -65.306600 -29.013900  -0.002895   0.001401  -9.506950  -0.002582  -0.001508 -32.599200   6.158580  -9.523010 -27.092200   0.013485   0.000516 -18.964600   0.004801   0.002697 -29.049200  -1.006830   1.812010 -43.597600   0.011569   0.003324 -29.036000  -0.000252   0.011853 -29.820500  -1.031130   1.798280 -44.755100   0.011702   0.002473 -29.806900   0.002151   0.010818 -36.460600  -1.232200   1.667020 -54.717800  -0.007092   0.002887 -36.442000   0.000872  -0.001327   0.513237  -8.068900   3.582840  28.494300 -16.993400  46.587100 -43.901500 -35.683100  68.085800 -40.647000  26.378000  23.442800 -37.740000  35.570700  58.307600  37.998300   0.002164  -0.001611  14.845000   0.003530   0.000556  88.996100   4.997330   0.087999  76.607000   0.003136   0.006562  57.455200   0.003074  -0.003981  89.000000   0.003944  -0.001770  91.764400   0.005472   0.004950  68.823300   0.005483  -0.003999  88.996300  -4.996100  -0.086834  91.501600  -0.000478   0.001604  68.626200   0.005511  -0.011823  88.984600  -9.996970  -0.176283 110.000000  -0.008426  -0.008709  80.000000  -0.001406   0.003488   4.287720  18.122300  -1.634300   1.369400   2.806880   8.946020  -2.404180  -4.690570  -2.121140   0.000000   0.000000   0.000000   6.131530  17.158700  -4.170200  -0.825243   2.703720 -16.056200   1.036400  -4.790000   7.022040  -0.000000   0.000000  -0.000000
 -3.300090  89.474300  -1.322450  -3.834270 -16.333800  -3.523170   2.748860   8.804900  -1.632930   5.858950  17.515500  -3.765320   2.224620   0.135880  -0.008138   3.654850   0.274352  10.762300  -1.846310  -1.115700   0.485431 -74.132400  20.477100  -8.800490  -3.195690  -6.468860 -12.181400  15.527900  -1.590880   0.008492  43.332900  36.460600 -65.308100 -29.019800  -0.002901   0.001378  -9.509610  -0.002584  -0.001501 -32.617300   6.148140  -9.499270 -27.105400   0.013484   0.000569 -18.973900   0.004740   0.002755 -29.053800  -1.014980   1.826320 -43.604900   0.011611   0.003370 -29.040800  -0.000288   0.011842 -29.844100  -1.040010   1.812160 -44.790700   0.011756   0.002511 -29.830600   0.002128   0.010827 -36.486600  -1.242750   1.679680 -54.757200  -0.007055   0.002877 -36.468300   0.000911  -0.001266   0.511596  -8.072730   3.573450  28.472800 -16.955300  46.574300 -43.994800 -35.803400  68.173700 -40.578800  26.399300  23.433400 -37.781500  35.623400  58.317700  37.992500   0.002111  -0.001551  14.843300   0.003453   0.000534  88.996100   4.997420   0.088060  76.573400   0.003147   0.006668  57.430000   0.003086  -0.003993  89.000000   0.003904  -0.001833  91.730900   0.005539   0.005016  68.798200   0.005412  -0.004044  88.996300  -4.996210  -0.086851  91.972800  -0.000441   0.001611  68.979500   0.005448  -0.011862  88.984600  -9.996940  -0.176284 110.000000  -0.008389  -0.008739  80.000000  -0.001421   0.003487   4.288350  18.107700  -1.651430   1.365400   2.802410   8.930070  -2.398680  -4.687070  -2.128370   0.000000   0.000000   0.000000   6.123310  17.124800  -4.174440  -0.819213   2.744120 -16.051000   1.048430  -4.815030   6.990660   0.000000   0.000000   0.000000
 -3.290110  89.474000  -1.323120  -3.822900 -16.321400  -3.482680   2.736380   8.779440  -1.633050   5.831940  17.465100  -3.760980   2.204130   0.164062  -0.008349   3.621250   0.331390  10.797700  -1.858840  -1.088220   0.507087 -74.143400  20.488700  -8.800130  -3.168580  -6.475610 -12.203400  15.527900  -1.612990   0.031720  43.333900  36.465600 -65.310200 -29.024600  -0.002905   0.001357  -9.512410  -0.002585  -0.001494 -32.630600   6.141470  -9.485880 -27.115000   0.013483   0.000623 -18.980600   0.004679   0.002813 -29.058200  -1.023210   1.840770 -43.611900   0.011654   0.003415 -29.045600  -0.000323   0.011831 -29.860400  -1.048880   1.826240 -44.815700   0.011809   0.002548 -29.847200   0.002106   0.010836 -36.510200  -1.253340   1.692520 -54.793000  -0.007019   0.002867 -36.492200   0.000950  -0.001204   0.509109  -8.078370   3.560300  28.444300 -16.920000  46.561700 -44.083500 -35.926000  68.252700 -40.517000  26.419600  23.430000 -37.801200  35.659700  58.318500  37.989000   0.002057  -0.001484  14.842000   0.003376   0.000513  88.996100   4.997500   0.088119  76.542500   0.003160   0.006774  57.406900   0.003101  -0.004004  89.000000   0.003862  -0.001894  91.698900   0.005604   0.005080  68.774200   0.005340  -0.004088  88.996300  -4.996330  -0.086870  92.446300  -0.000405   0.001621  69.334700   0.005383  -0.011904  88.984600  -9.996910  -0.176286 110.000000  -0.008350  -0.008771  80.000000  -0.001435   0.003487   4.283510  18.089900  -1.662810   1.360910   2.797880   8.911870  -2.391300  -4.684430  -2.133840   0.000000   0.000000  -0.000000   6.116520  17.087300  -4.176330  -0.816515   2.785550 -16.041400   1.057580  -4.839650   6.943830  -0.000000   0.000000  -0.000000
 -3.278860  89.473600  -1.323000  -3.813050 -16.304300  -3.448230   2.723700   8.750930  -1.629220   5.803500  17.408800  -3.747600   2.183200   0.191756  -0.008528   3.586830   0.387254  10.825000  -1.868930  -1.064050   0.523434 -74.163800  20.482500  -8.789390  -3.144360  -6.469660 -12.220200  15.527700  -1.626000   0.052903  43.333600  36.466500 -65.299400 -29.027800  -0.002903   0.001345  -9.513940  -0.002585  -0.001498 -32.624100   6.140290  -9.486420 -27.109600   0.013484   0.000674 -18.976800   0.004621   0.002865 -29.061700  -1.033230   1.858500 -43.617600   0.011698   0.003456 -29.049400  -0.000358   0.011816 -29.857000  -1.058980   1.843940 -44.811100   0.011858   0.002593 -29.844200   0.002084   0.010841 -36.524000  -1.265880   1.708580 -54.814300  -0.006983   0.002852 -36.506400   0.000992  -0.001140   0.505234  -8.081490   3.538480  28.402200 -16.883700  46.547100 -44.197300 -36.074500  68.297100 -40.431400  26.418800  23.419900 -37.797200  35.645700  58.280900  37.979600   0.001999  -0.001460  14.835500   0.003302   0.000493  88.996100   4.997570   0.088168  76.523600   0.003187   0.006883  57.392700   0.003122  -0.004009  89.000000   0.003816  -0.001964  91.674100   0.005666   0.005146  68.755500   0.005275  -0.004129  88.996300  -4.996440  -0.086886  92.935700  -0.000385   0.001638  69.701700   0.005318  -0.011946  88.984600  -9.996890  -0.176292 110.000000  -0.008309  -0.008799  80.000000  -0.001442   0.003474   4.275320  18.069300  -1.661970   1.356980   2.791870   8.888730  -2.381850  -4.680110  -2.137800   0.000000   0.000000   0.000000   6.109110  17.045400  -4.163700  -0.819026   2.831360 -16.029900   1.072530  -4.865820   6.887090   0.000000   0.000000   0.000000
 -3.265990  89.473200  -1.322140  -3.802600 -16.285400  -3.412300   2.711240   8.719550  -1.625370   5.776250  17.346700  -3.737340   2.160880   0.218627  -0.008785   3.550140   0.441442  10.852700  -1.879700  -1.035610   0.542170 -74.192100  20.467300  -8.770690  -3.121310  -6.458240 -12.228600  15.527500  -1.633950   0.073736  43.332900  36.465500 -65.285100 -29.032200  -0.002898   0.001328  -9.516080  -0.002586  -0.001502 -32.617600   6.139110  -9.486970 -27.104300   0.013485   0.000724 -18.973000   0.004562   0.002916 -29.064700  -1.044110   1.877820 -43.622700   0.011741   0.003495 -29.052800  -0.000391   0.011800 -29.853600  -1.069860   1.863270 -44.806500   0.011906   0.002638 -29.841200   0.002061   0.010842 -36.533200  -1.279360   1.726190 -54.828700  -0.006945   0.002837 -36.515900   0.001033  -0.001075   0.501175  -8.083700   3.514990  28.351600 -16.846500  46.521800 -44.316700 -36.230100  68.323400 -40.366900  26.403500  23.405200 -37.785700  35.609100  58.232200  37.973300   0.001942  -0.001435  14.830800   0.003229   0.000474  88.996100   4.997640   0.088213  76.516000   0.003216   0.006991  57.387000   0.003142  -0.004013  89.000000   0.003771  -0.002038  91.662000   0.005731   0.005208  68.746500   0.005215  -0.004169  88.996300  -4.996540  -0.086902  93.450500  -0.000367   0.001658  70.087800   0.005253  -0.011983  88.984600  -9.996870  -0.176295 110.000000  -0.008263  -0.008827  80.000000  -0.001447   0.003456   4.265360  18.048000  -1.661130   1.354190   2.784680   8.863670  -2.371520  -4.675000  -2.143060   0.000000   0.000000  -0.000000   6.100990  17.005500  -4.146360  -0.824363   2.875790 -16.022900   1.088520  -4.891680   6.834910   0.000000   0.000000  -0.000000
 -3.251080  89.472900  -1.319110  -3.790110 -16.267200  -3.368820   2.700590   8.686450  -1.626040   5.753680  17.281000  -3.736900   2.135460   0.241866  -0.009143   3.508230   0.488429  10.879600  -1.895800  -0.998696   0.564083 -74.227900  20.441700  -8.751370  -3.097090  -6.441310 -12.229200  15.527700  -1.638070   0.095905  43.327100  36.465900 -65.273800 -29.042200  -0.002888   0.001290  -9.521050  -0.002590  -0.001500 -32.620300   6.133050  -9.478380 -27.105300   0.013477   0.000770 -18.973700   0.004499   0.002973 -29.067100  -1.056640   1.900160 -43.627000   0.011780   0.003533 -29.055600  -0.000425   0.011786 -29.854300  -1.082670   1.885470 -44.808400   0.011960   0.002680 -29.842500   0.002040   0.010843 -36.539600  -1.294820   1.746620 -54.839000  -0.006900   0.002824 -36.522700   0.001074  -0.001010   0.497524  -8.085280   3.491910  28.285900 -16.806100  46.477700 -44.438200 -36.381900  68.346800 -40.317400  26.326300  23.375900 -37.744000  35.552600  58.199100  37.984900   0.001889  -0.001366  14.839500   0.003153   0.000457  88.996100   4.997730   0.088264  76.526200   0.003234   0.007097  57.394700   0.003155  -0.004017  89.000000   0.003732  -0.002115  91.678100   0.005809   0.005261  68.758600   0.005158  -0.004208  88.996300  -4.996640  -0.086915  94.015100  -0.000339   0.001677  70.511300   0.005189  -0.012003  88.984600  -9.996840  -0.176295 110.000000  -0.008207  -0.008857  80.000000  -0.001458   0.003447   4.252300  18.028000  -1.661540   1.354390   2.776300   8.839250  -2.361810  -4.668500  -2.152880  -0.000000   0.000000  -0.000000   6.096140  16.972900  -4.138330  -0.830413   2.914730 -16.041400   1.103770  -4.916360   6.809690   0.000000   0.000000  -0.000000
